<svg xmlns="http://www.w3.org/2000/svg" viewBox="0 0 1080 560" font-family="Segoe UI, Arial, sans-serif">
  <defs>
    <linearGradient id="bg" x1="0" y1="0" x2="0" y2="1">
      <stop offset="0" stop-color="#0d1117"/>
      <stop offset="1" stop-color="#161b22"/>
    </linearGradient>
    <marker id="arrow" markerWidth="10" markerHeight="10" refX="8" refY="3" orient="auto" markerUnits="strokeWidth">
      <path d="M0,0 L8,3 L0,6 Z" fill="#58a6ff"/>
    </marker>
  </defs>

  <rect width="1080" height="560" rx="16" fill="url(#bg)"/>

  <!-- Title -->
  <text x="40" y="56" fill="#e6edf3" font-size="30" font-weight="700">5m Anchor-Trigger Scalp Bot</text>
  <text x="40" y="84" fill="#8b949e" font-size="16">BTC/USDT Perpetual Futures · BingX · rein indikatorbasiert</text>
  <rect x="820" y="36" width="220" height="34" rx="17" fill="#1f6feb22" stroke="#1f6feb" stroke-width="1.5"/>
  <text x="930" y="58" fill="#58a6ff" font-size="14" text-anchor="middle" font-weight="600">PAPER TRADING · keine Orders</text>

  <!-- Pipeline boxes -->
  <!-- 1 Data -->
  <g>
    <rect x="40" y="140" width="200" height="120" rx="12" fill="#161b22" stroke="#30363d" stroke-width="1.5"/>
    <rect x="40" y="140" width="200" height="36" rx="12" fill="#1f6feb22"/>
    <text x="60" y="164" fill="#58a6ff" font-size="15" font-weight="700">1 · Datenquelle</text>
    <text x="60" y="200" fill="#e6edf3" font-size="14" font-weight="600">BingX REST</text>
    <text x="60" y="222" fill="#8b949e" font-size="12.5">500 × 5m-Kerzen</text>
    <text x="60" y="242" fill="#8b949e" font-size="12.5">Repaint-Schutz:</text>
    <text x="60" y="258" fill="#8b949e" font-size="12.5">nur geschl. Kerzen</text>
  </g>

  <!-- 2 Indicators -->
  <g>
    <rect x="290" y="140" width="200" height="120" rx="12" fill="#161b22" stroke="#30363d" stroke-width="1.5"/>
    <rect x="290" y="140" width="200" height="36" rx="12" fill="#1f6feb22"/>
    <text x="310" y="164" fill="#58a6ff" font-size="15" font-weight="700">2 · Indikatoren</text>
    <text x="310" y="200" fill="#e6edf3" font-size="14" font-weight="600">WaveTrend 9/12/3</text>
    <text x="310" y="222" fill="#8b949e" font-size="12.5">wt1/wt2 + Dots</text>
    <text x="310" y="244" fill="#e6edf3" font-size="14" font-weight="600">MFI(14)</text>
  </g>

  <!-- 3 Setup -->
  <g>
    <rect x="540" y="140" width="200" height="120" rx="12" fill="#161b22" stroke="#30363d" stroke-width="1.5"/>
    <rect x="540" y="140" width="200" height="36" rx="12" fill="#1f6feb22"/>
    <text x="560" y="164" fill="#58a6ff" font-size="15" font-weight="700">3 · Setup-Erkennung</text>
    <text x="560" y="200" fill="#e6edf3" font-size="14" font-weight="600">Anker → Trigger</text>
    <text x="560" y="222" fill="#8b949e" font-size="12.5">+MFI-Filter</text>
    <text x="560" y="242" fill="#8b949e" font-size="12.5">+Divergenz-Check</text>
    <text x="560" y="258" fill="#8b949e" font-size="12.5">Null-Kreuz = Invalid</text>
  </g>

  <!-- 4 Levels -->
  <g>
    <rect x="790" y="140" width="200" height="120" rx="12" fill="#161b22" stroke="#30363d" stroke-width="1.5"/>
    <rect x="790" y="140" width="200" height="36" rx="12" fill="#23863622"/>
    <text x="810" y="164" fill="#3fb950" font-size="15" font-weight="700">4 · Trade-Levels</text>
    <text x="810" y="200" fill="#e6edf3" font-size="14" font-weight="600">Entry · SL · TP1</text>
    <text x="810" y="222" fill="#8b949e" font-size="12.5">SL: Pivot ±0,3 %</text>
    <text x="810" y="244" fill="#3fb950" font-size="14" font-weight="600">RR 2:1</text>
  </g>

  <!-- arrows -->
  <line x1="240" y1="200" x2="288" y2="200" stroke="#58a6ff" stroke-width="2.5" marker-end="url(#arrow)"/>
  <line x1="490" y1="200" x2="538" y2="200" stroke="#58a6ff" stroke-width="2.5" marker-end="url(#arrow)"/>
  <line x1="740" y1="200" x2="788" y2="200" stroke="#58a6ff" stroke-width="2.5" marker-end="url(#arrow)"/>

  <!-- Signal example panel -->
  <rect x="40" y="300" width="950" height="180" rx="12" fill="#0d1117" stroke="#30363d" stroke-width="1.5"/>
  <text x="60" y="332" fill="#e6edf3" font-size="16" font-weight="700">Beispiel-Signal (Live-Test 2026-06-12)</text>

  <!-- mini chart line -->
  <polyline points="60,440 110,420 160,448 210,452 260,430 310,455 360,440 410,400 460,372 510,388"
            fill="none" stroke="#8b949e" stroke-width="2"/>
  <circle cx="260" cy="430" r="6" fill="#3fb950"/>
  <text x="240" y="416" fill="#3fb950" font-size="12" font-weight="600">Anker</text>
  <circle cx="460" cy="372" r="6" fill="#58a6ff"/>
  <text x="442" y="358" fill="#58a6ff" font-size="12" font-weight="600">Trigger</text>

  <!-- levels -->
  <g font-size="13.5">
    <rect x="560" y="356" width="410" height="26" rx="6" fill="#23863618"/>
    <text x="576" y="374" fill="#3fb950" font-weight="600">TP1  63 950.06</text>
    <text x="820" y="374" fill="#8b949e">Ziel · RR 2:1</text>

    <rect x="560" y="392" width="410" height="26" rx="6" fill="#1f6feb18"/>
    <text x="576" y="410" fill="#58a6ff" font-weight="600">Entry 63 064.60</text>
    <text x="820" y="410" fill="#8b949e">Long · Kerzenschluss</text>

    <rect x="560" y="428" width="410" height="26" rx="6" fill="#da363318"/>
    <text x="576" y="446" fill="#f85149" font-weight="600">SL   62 621.87</text>
    <text x="820" y="446" fill="#8b949e">Pivot −0,3 % · Risiko 0,70 %</text>
  </g>

  <text x="40" y="520" fill="#6e7681" font-size="12.5">⚠ Startwerte im Paper Trading zu kalibrieren · keine Anlageberatung · KEIN echtes Trading in dieser Phase</text>
</svg>
