<svg viewBox="0 0 1200 720" xmlns="http://www.w3.org/2000/svg" font-family="-apple-system,BlinkMacSystemFont,'Helvetica Neue',system-ui,sans-serif">
  <defs>
    <linearGradient id="equity-fill" x1="0" y1="0" x2="0" y2="1">
      <stop offset="0%" stop-color="#0a84ff" stop-opacity="0.25"/>
      <stop offset="100%" stop-color="#0a84ff" stop-opacity="0.02"/>
    </linearGradient>
    <linearGradient id="bg-grad" x1="0" y1="0" x2="0" y2="1">
      <stop offset="0%" stop-color="#1c1c1e"/>
      <stop offset="100%" stop-color="#000000"/>
    </linearGradient>
  </defs>

  <!-- Background -->
  <rect width="1200" height="720" fill="#000000" rx="12"/>

  <!-- Header -->
  <rect width="1200" height="52" fill="#1c1c1e" rx="0"/>
  <rect width="1200" height="52" fill="#1c1c1e"/>
  <rect y="51.5" width="1200" height="0.5" fill="rgba(84,84,88,0.5)"/>
  <text x="24" y="22" fill="#ffffff" font-size="14" font-weight="600" letter-spacing="-0.3">MICK TRADING BOT</text>
  <text x="24" y="39" fill="#98989e" font-size="11">5m Anchor-Trigger Scalp · BTC/USDT Perpetual · BingX</text>
  <!-- Paper Trading Badge -->
  <rect x="1042" y="14" width="130" height="24" rx="12" fill="rgba(10,132,255,0.15)"/>
  <circle cx="1057" cy="26" r="4" fill="#30d158"/>
  <text x="1066" y="30" fill="#0a84ff" font-size="11" font-weight="600">Paper Trading</text>
  <text x="1183" y="30" fill="#98989e" font-size="11" text-anchor="end">18:42:07 UTC</text>

  <!-- Toolbar -->
  <text x="24" y="74" fill="#98989e" font-size="11">Auto-Refresh alle 30 s  (nächste in 24 s)</text>
  <rect x="1104" y="60" width="90" height="26" rx="7" fill="#2c2c2e"/>
  <text x="1149" y="77" fill="#ebebf5" font-size="12" font-weight="500" text-anchor="middle">↻  Aktualisieren</text>

  <!-- ── 4 Metric Cards ── -->
  <!-- Balance -->
  <rect x="24" y="96" width="270" height="88" rx="14" fill="#1c1c1e"/>
  <text x="42" y="118" fill="#98989e" font-size="10" font-weight="500" letter-spacing="0.8">BALANCE</text>
  <text x="42" y="150" fill="#ffffff" font-size="28" font-weight="700" letter-spacing="-1.2">1.247,83</text>
  <text x="42" y="170" fill="#98989e" font-size="11">USDT</text>

  <!-- Gesamt PNL -->
  <rect x="302" y="96" width="270" height="88" rx="14" fill="#1c1c1e"/>
  <text x="320" y="118" fill="#98989e" font-size="10" font-weight="500" letter-spacing="0.8">GESAMT PNL</text>
  <text x="320" y="150" fill="#30d158" font-size="28" font-weight="700" letter-spacing="-1.2">+247,83</text>
  <text x="320" y="170" fill="#30d158" font-size="11">+24,78 %</text>

  <!-- Win Rate -->
  <rect x="580" y="96" width="270" height="88" rx="14" fill="#1c1c1e"/>
  <text x="598" y="118" fill="#98989e" font-size="10" font-weight="500" letter-spacing="0.8">WIN RATE</text>
  <text x="598" y="150" fill="#30d158" font-size="28" font-weight="700" letter-spacing="-1.2">68 %</text>
  <text x="598" y="170" fill="#98989e" font-size="11">34 Trades</text>

  <!-- Heute PNL -->
  <rect x="858" y="96" width="318" height="88" rx="14" fill="#1c1c1e"/>
  <text x="876" y="118" fill="#98989e" font-size="10" font-weight="500" letter-spacing="0.8">HEUTE PNL</text>
  <text x="876" y="150" fill="#30d158" font-size="28" font-weight="700" letter-spacing="-1.2">+18,40</text>
  <text x="876" y="170" fill="#98989e" font-size="11">+1,48 %</text>

  <!-- ── Offene Position ── -->
  <rect x="24" y="194" width="1152" height="80" rx="14" fill="#1c1c1e"/>
  <text x="42" y="216" fill="#98989e" font-size="10" font-weight="500" letter-spacing="0.8">OFFENE POSITION</text>
  <!-- Long Badge -->
  <rect x="170" y="205" width="58" height="18" rx="5" fill="rgba(48,209,88,0.15)"/>
  <text x="177" y="218" fill="#30d158" font-size="10" font-weight="600">◆ Long</text>
  <!-- Cols -->
  <text x="42" y="240" fill="#98989e" font-size="10" letter-spacing="0.5">ENTRY</text>
  <text x="42" y="258" fill="#ffffff" font-size="16" font-weight="600" letter-spacing="-0.5">64.230,00</text>
  <line x1="328" y1="210" x2="328" y2="265" stroke="rgba(84,84,88,0.5)" stroke-width="0.5"/>
  <text x="348" y="240" fill="#98989e" font-size="10" letter-spacing="0.5">STOP LOSS</text>
  <text x="348" y="258" fill="#ff453a" font-size="16" font-weight="600" letter-spacing="-0.5">63.840,00</text>
  <line x1="614" y1="210" x2="614" y2="265" stroke="rgba(84,84,88,0.5)" stroke-width="0.5"/>
  <text x="634" y="240" fill="#98989e" font-size="10" letter-spacing="0.5">TP1</text>
  <text x="634" y="258" fill="#30d158" font-size="16" font-weight="600" letter-spacing="-0.5">65.010,00</text>
  <line x1="900" y1="210" x2="900" y2="265" stroke="rgba(84,84,88,0.5)" stroke-width="0.5"/>
  <text x="920" y="240" fill="#98989e" font-size="10" letter-spacing="0.5">UNREALISIERT PNL</text>
  <text x="920" y="258" fill="#30d158" font-size="16" font-weight="600" letter-spacing="-0.5">+9,42</text>

  <!-- ── Balance Kurve ── -->
  <rect x="24" y="284" width="760" height="270" rx="14" fill="#1c1c1e"/>
  <text x="42" y="308" fill="#98989e" font-size="10" font-weight="500" letter-spacing="0.8">BALANCE-KURVE</text>

  <!-- Y-axis labels -->
  <text x="42" y="330" fill="#98989e" font-size="10">1280</text>
  <text x="42" y="365" fill="#98989e" font-size="10">1240</text>
  <text x="42" y="400" fill="#98989e" font-size="10">1200</text>
  <text x="42" y="435" fill="#98989e" font-size="10">1160</text>
  <text x="42" y="470" fill="#98989e" font-size="10">1120</text>
  <text x="42" y="505" fill="#98989e" font-size="10">1080</text>
  <text x="42" y="540" fill="#98989e" font-size="10">1040</text>

  <!-- Grid lines -->
  <line x1="78" y1="325" x2="762" y2="325" stroke="rgba(84,84,88,0.3)" stroke-width="0.5" stroke-dasharray="4,4"/>
  <line x1="78" y1="360" x2="762" y2="360" stroke="rgba(84,84,88,0.3)" stroke-width="0.5" stroke-dasharray="4,4"/>
  <line x1="78" y1="395" x2="762" y2="395" stroke="rgba(84,84,88,0.3)" stroke-width="0.5" stroke-dasharray="4,4"/>
  <line x1="78" y1="430" x2="762" y2="430" stroke="rgba(84,84,88,0.3)" stroke-width="0.5" stroke-dasharray="4,4"/>
  <line x1="78" y1="465" x2="762" y2="465" stroke="rgba(84,84,88,0.3)" stroke-width="0.5" stroke-dasharray="4,4"/>
  <line x1="78" y1="500" x2="762" y2="500" stroke="rgba(84,84,88,0.3)" stroke-width="0.5" stroke-dasharray="4,4"/>
  <line x1="78" y1="535" x2="762" y2="535" stroke="rgba(84,84,88,0.3)" stroke-width="0.5" stroke-dasharray="4,4"/>

  <!-- Equity curve fill -->
  <polygon points="78,535 160,510 230,490 300,485 370,460 440,445 510,438 580,420 650,405 720,385 762,370 762,540 78,540"
           fill="url(#equity-fill)"/>
  <!-- Equity curve line -->
  <polyline points="78,535 160,510 230,490 300,485 370,460 440,445 510,438 580,420 650,405 720,385 762,370"
            fill="none" stroke="#0a84ff" stroke-width="2.5" stroke-linejoin="round" stroke-linecap="round"/>
  <!-- Dots -->
  <circle cx="78" cy="535" r="4" fill="#0a84ff" stroke="#1c1c1e" stroke-width="2"/>
  <circle cx="762" cy="370" r="5" fill="#0a84ff" stroke="#1c1c1e" stroke-width="2"/>

  <!-- X-axis labels -->
  <text x="78" y="555" fill="#98989e" font-size="10" text-anchor="middle">Start</text>
  <text x="205" y="555" fill="#98989e" font-size="10" text-anchor="middle">T5</text>
  <text x="370" y="555" fill="#98989e" font-size="10" text-anchor="middle">T12</text>
  <text x="535" y="555" fill="#98989e" font-size="10" text-anchor="middle">T20</text>
  <text x="700" y="555" fill="#98989e" font-size="10" text-anchor="middle">T28</text>
  <text x="762" y="555" fill="#98989e" font-size="10" text-anchor="middle">T34</text>

  <!-- ── PNL Pro Trade ── -->
  <rect x="792" y="284" width="384" height="270" rx="14" fill="#1c1c1e"/>
  <text x="810" y="308" fill="#98989e" font-size="10" font-weight="500" letter-spacing="0.8">PNL PRO TRADE</text>

  <!-- Grid -->
  <line x1="840" y1="325" x2="1160" y2="325" stroke="rgba(84,84,88,0.3)" stroke-width="0.5" stroke-dasharray="4,4"/>
  <line x1="840" y1="370" x2="1160" y2="370" stroke="rgba(84,84,88,0.3)" stroke-width="0.5" stroke-dasharray="4,4"/>
  <line x1="840" y1="430" x2="1160" y2="430" stroke="rgba(84,84,88,0.3)" stroke-width="0.5" stroke-dasharray="4,4"/>
  <line x1="840" y1="480" x2="1160" y2="480" stroke="rgba(84,84,88,0.3)" stroke-width="0.5" stroke-dasharray="4,4"/>
  <line x1="840" y1="530" x2="1160" y2="530" stroke="rgba(84,84,88,0.3)" stroke-width="0.5" stroke-dasharray="4,4"/>
  <!-- Zero line -->
  <line x1="840" y1="430" x2="1160" y2="430" stroke="rgba(84,84,88,0.6)" stroke-width="0.8"/>

  <!-- Bars -->
  <rect x="848" y="375" width="26" height="55" rx="3" fill="rgba(48,209,88,0.85)"/>
  <rect x="882" y="390" width="26" height="40" rx="3" fill="rgba(48,209,88,0.85)"/>
  <rect x="916" y="435" width="26" height="48" rx="3" fill="rgba(255,69,58,0.85)"/>
  <rect x="950" y="385" width="26" height="45" rx="3" fill="rgba(48,209,88,0.85)"/>
  <rect x="984" y="408" width="26" height="22" rx="3" fill="rgba(48,209,88,0.85)"/>
  <rect x="1018" y="430" width="26" height="35" rx="3" fill="rgba(255,69,58,0.85)"/>
  <rect x="1052" y="365" width="26" height="65" rx="3" fill="rgba(48,209,88,0.85)"/>
  <rect x="1086" y="420" width="26" height="10" rx="3" fill="rgba(48,209,88,0.85)"/>
  <rect x="1120" y="430" width="26" height="40" rx="3" fill="rgba(255,69,58,0.85)"/>

  <!-- Y labels -->
  <text x="836" y="329" fill="#98989e" font-size="9" text-anchor="end">+20</text>
  <text x="836" y="374" fill="#98989e" font-size="9" text-anchor="end">+10</text>
  <text x="836" y="434" fill="#98989e" font-size="9" text-anchor="end">0</text>
  <text x="836" y="484" fill="#98989e" font-size="9" text-anchor="end">−10</text>

  <!-- ── Trade Journal ── -->
  <rect x="24" y="564" width="1152" height="144" rx="14" fill="#1c1c1e"/>
  <!-- Header row -->
  <rect x="24" y="564" width="1152" height="34" rx="14" fill="#1c1c1e"/>
  <rect x="24" y="584" width="1152" height="14" fill="#1c1c1e"/>
  <line x1="24" y1="598" x2="1176" y2="598" stroke="rgba(84,84,88,0.5)" stroke-width="0.5"/>
  <text x="44" y="587" fill="#98989e" font-size="10" font-weight="500" letter-spacing="0.8">EINSTIEG</text>
  <text x="178" y="587" fill="#98989e" font-size="10" font-weight="500" letter-spacing="0.8">AUSSTIEG</text>
  <text x="312" y="587" fill="#98989e" font-size="10" font-weight="500" letter-spacing="0.8">RICHTUNG</text>
  <text x="430" y="587" fill="#98989e" font-size="10" font-weight="500" letter-spacing="0.8">ENTRY</text>
  <text x="540" y="587" fill="#98989e" font-size="10" font-weight="500" letter-spacing="0.8">SL</text>
  <text x="640" y="587" fill="#98989e" font-size="10" font-weight="500" letter-spacing="0.8">TP1</text>
  <text x="740" y="587" fill="#98989e" font-size="10" font-weight="500" letter-spacing="0.8">EXIT</text>
  <text x="848" y="587" fill="#98989e" font-size="10" font-weight="500" letter-spacing="0.8">GRUND</text>
  <text x="940" y="587" fill="#98989e" font-size="10" font-weight="500" letter-spacing="0.8">QTY</text>
  <text x="1030" y="587" fill="#98989e" font-size="10" font-weight="500" letter-spacing="0.8">PNL (USD)</text>
  <text x="1110" y="587" fill="#98989e" font-size="10" font-weight="500" letter-spacing="0.8">PNL %</text>

  <!-- Row 1 -->
  <text x="44" y="618" fill="#ebebf5" font-size="12">2026-06-12 17:45</text>
  <text x="178" y="618" fill="#ebebf5" font-size="12">2026-06-12 17:50</text>
  <text x="312" y="618" fill="#30d158" font-size="12" font-weight="600">◆ Long</text>
  <text x="430" y="618" fill="#ebebf5" font-size="12">63.800,00</text>
  <text x="540" y="618" fill="#ff453a" font-size="12">63.608,00</text>
  <text x="640" y="618" fill="#30d158" font-size="12">64.184,00</text>
  <text x="740" y="618" fill="#ebebf5" font-size="12">64.184,00</text>
  <text x="848" y="618" fill="#98989e" font-size="12">TP1</text>
  <text x="940" y="618" fill="#98989e" font-size="12">0.047020</text>
  <text x="1030" y="618" fill="#30d158" font-size="12">+18,06</text>
  <text x="1110" y="618" fill="#30d158" font-size="12">+1,81 %</text>
  <line x1="24" y1="630" x2="1176" y2="630" stroke="rgba(84,84,88,0.25)" stroke-width="0.5"/>

  <!-- Row 2 -->
  <text x="44" y="650" fill="#ebebf5" font-size="12">2026-06-12 11:20</text>
  <text x="178" y="650" fill="#ebebf5" font-size="12">2026-06-12 11:25</text>
  <text x="312" y="650" fill="#ff453a" font-size="12" font-weight="600">◆ Short</text>
  <text x="430" y="650" fill="#ebebf5" font-size="12">63.410,00</text>
  <text x="540" y="650" fill="#ff453a" font-size="12">63.602,00</text>
  <text x="640" y="650" fill="#30d158" font-size="12">63.026,00</text>
  <text x="740" y="650" fill="#ebebf5" font-size="12">63.020,00</text>
  <text x="848" y="650" fill="#98989e" font-size="12">SL</text>
  <text x="940" y="650" fill="#98989e" font-size="12">0.052100</text>
  <text x="1030" y="650" fill="#ff453a" font-size="12">−10,00</text>
  <text x="1110" y="650" fill="#ff453a" font-size="12">−1,00 %</text>
  <line x1="24" y1="662" x2="1176" y2="662" stroke="rgba(84,84,88,0.25)" stroke-width="0.5"/>

  <!-- Row 3 -->
  <text x="44" y="682" fill="#ebebf5" font-size="12">2026-06-12 07:55</text>
  <text x="178" y="682" fill="#ebebf5" font-size="12">2026-06-12 08:05</text>
  <text x="312" y="682" fill="#30d158" font-size="12" font-weight="600">◆ Long</text>
  <text x="430" y="682" fill="#ebebf5" font-size="12">63.064,60</text>
  <text x="540" y="682" fill="#ff453a" font-size="12">62.621,87</text>
  <text x="640" y="682" fill="#30d158" font-size="12">63.950,06</text>
  <text x="740" y="682" fill="#ebebf5" font-size="12">63.950,06</text>
  <text x="848" y="682" fill="#98989e" font-size="12">TP1</text>
  <text x="940" y="682" fill="#98989e" font-size="12">0.022560</text>
  <text x="1030" y="682" fill="#30d158" font-size="12">+19,97</text>
  <text x="1110" y="682" fill="#30d158" font-size="12">+2,00 %</text>

  <!-- Footer -->
  <rect x="0" y="700" width="1200" height="20" fill="#1c1c1e"/>
  <rect x="0" y="699.5" width="1200" height="0.5" fill="rgba(84,84,88,0.5)"/>
  <text x="24" y="713" fill="#98989e" font-size="10">Aktualisiert: 18:42:07 Uhr</text>
</svg>
